<svg width="1150" height="459" fill="none" xmlns="http://www.w3.org/2000/svg"><path d="M140 274c0-40-24-62-60-62-26 0-48 11-63 32l19 19c12-15 24-22 41-22 20 0 31 11 31 31v10H66c-33 0-54 16-54 42 0 25 20 42 51 42 20 0 37-7 47-19v16h30v-89zm-32 33c0 20-17 35-38 35-15 0-26-7-26-19s9-18 26-18h38v2zm52 56h31V216h-31v147zm-6-202c0 12 10 21 22 21 11 0 21-9 21-21s-10-21-21-21c-12 0-22 9-22 21zm143 55l-12-2c-17 0-32 8-43 21v-19h-29v147h31v-79c0-26 18-40 43-40h10v-28z" fill="#0079CD"/><path d="M398 189c0-19 10-26 29-26l13 1v-27l-21-2c-32 0-52 17-52 51v30h-21v27h21v120h31V243h35v-27h-35v-27zm64 174h32V216h-32v147zm-5-202c0 12 9 21 21 21s22-9 22-21-10-21-22-21-21 9-21 21zm212 129c0-44-31-78-73-78-20 0-38 8-49 22v-96h-31v225h29v-20c11 15 30 23 52 23 41 0 72-33 72-76zm-33-1c0 28-19 49-45 49-23 0-44-16-44-48 0-33 21-49 44-49 25 0 45 20 45 48zm178 11l2-20c0-38-29-68-68-68-42 0-77 35-76 78 0 43 34 76 79 76 22 0 42-7 59-23l-15-22a64 64 0 01-43 17c-25 0-44-14-48-38h110zm-110-25c5-22 22-36 43-36 20 0 37 14 37 36h-80zm208-59l-12-2c-16 0-32 8-43 21v-19h-29v147h32v-79c0-26 18-40 43-40h9v-28z" fill="#000"/><path d="M909 122c-37 18-56 34-53 42 1 10 62 5 140-22 77-28 132-61 124-72-7-8-40-6-75 12" stroke="#0079CD" stroke-width="20"/><path d="M1009 49c-18-5-32-7-51 0-36 13-51 45-54 82M1053 76l9 19c18 52-3 94-54 109-32 7-52 0-52 0" stroke="#0079CD" stroke-width="20"/></svg>